<mxfile host="app.diagrams.net" agent="Mozilla/5.0 (Windows NT 10.0; Win64; x64) AppleWebKit/537.36 (KHTML, like Gecko) Chrome/132.0.0.0 Safari/537.36 Edg/132.0.0.0" version="26.0.11">
  <diagram name="Page-1" id="zFSejBJWrx9DLY2z1bId">
    <mxGraphModel dx="246" dy="573" grid="1" gridSize="10" guides="1" tooltips="1" connect="1" arrows="1" fold="1" page="1" pageScale="1" pageWidth="850" pageHeight="1100" math="0" shadow="0">
      <root>
        <mxCell id="0" />
        <mxCell id="1" parent="0" />
        <mxCell id="15I_Uw0PIOJHW65UEEeW-135" style="edgeStyle=orthogonalEdgeStyle;rounded=0;orthogonalLoop=1;jettySize=auto;html=1;entryX=1;entryY=0.5;entryDx=0;entryDy=0;fontFamily=Helvetica;fontSize=12;fontColor=default;" parent="1" source="15I_Uw0PIOJHW65UEEeW-118" target="15I_Uw0PIOJHW65UEEeW-75" edge="1">
          <mxGeometry relative="1" as="geometry">
            <Array as="points">
              <mxPoint x="486" y="490" />
              <mxPoint x="486" y="280" />
            </Array>
          </mxGeometry>
        </mxCell>
        <mxCell id="15I_Uw0PIOJHW65UEEeW-1" value="ผู้ใช้" style="shape=umlActor;verticalLabelPosition=bottom;verticalAlign=top;html=1;outlineConnect=0;" parent="1" vertex="1">
          <mxGeometry x="82" y="469" width="30" height="60" as="geometry" />
        </mxCell>
        <mxCell id="15I_Uw0PIOJHW65UEEeW-4" value="ระบบ" style="shape=umlActor;verticalLabelPosition=bottom;verticalAlign=top;html=1;outlineConnect=0;" parent="1" vertex="1">
          <mxGeometry x="688" y="469" width="30" height="60" as="geometry" />
        </mxCell>
        <mxCell id="15I_Uw0PIOJHW65UEEeW-23" value="&lt;div&gt;ค้นหาการ์ด&lt;/div&gt;" style="ellipse;whiteSpace=wrap;html=1;" parent="1" vertex="1">
          <mxGeometry x="216" y="395" width="75" height="50" as="geometry" />
        </mxCell>
        <mxCell id="15I_Uw0PIOJHW65UEEeW-10" value="เพิ่มการ์ด" style="ellipse;whiteSpace=wrap;html=1;" parent="1" vertex="1">
          <mxGeometry x="366" y="325" width="75" height="50" as="geometry" />
        </mxCell>
        <mxCell id="15I_Uw0PIOJHW65UEEeW-8" value="สร้างเด็ค" style="ellipse;whiteSpace=wrap;html=1;" parent="1" vertex="1">
          <mxGeometry x="216" y="325" width="75" height="50" as="geometry" />
        </mxCell>
        <mxCell id="15I_Uw0PIOJHW65UEEeW-7" value="เข้าสู่ระบบ" style="ellipse;whiteSpace=wrap;html=1;" parent="1" vertex="1">
          <mxGeometry x="216" y="255" width="75" height="50" as="geometry" />
        </mxCell>
        <mxCell id="15I_Uw0PIOJHW65UEEeW-46" value="" style="endArrow=none;html=1;rounded=0;entryX=0;entryY=0.5;entryDx=0;entryDy=0;exitX=1;exitY=0.3333333333333333;exitDx=0;exitDy=0;exitPerimeter=0;" parent="1" source="15I_Uw0PIOJHW65UEEeW-1" target="15I_Uw0PIOJHW65UEEeW-7" edge="1">
          <mxGeometry width="50" height="50" relative="1" as="geometry">
            <mxPoint x="436" y="465" as="sourcePoint" />
            <mxPoint x="486" y="415" as="targetPoint" />
          </mxGeometry>
        </mxCell>
        <mxCell id="15I_Uw0PIOJHW65UEEeW-47" value="" style="endArrow=none;html=1;rounded=0;exitX=1;exitY=0.3333333333333333;exitDx=0;exitDy=0;exitPerimeter=0;entryX=0;entryY=0.5;entryDx=0;entryDy=0;" parent="1" source="15I_Uw0PIOJHW65UEEeW-1" target="15I_Uw0PIOJHW65UEEeW-8" edge="1">
          <mxGeometry width="50" height="50" relative="1" as="geometry">
            <mxPoint x="436" y="465" as="sourcePoint" />
            <mxPoint x="486" y="415" as="targetPoint" />
          </mxGeometry>
        </mxCell>
        <mxCell id="15I_Uw0PIOJHW65UEEeW-48" value="" style="endArrow=none;html=1;rounded=0;exitX=1;exitY=0.3333333333333333;exitDx=0;exitDy=0;exitPerimeter=0;entryX=0;entryY=0.5;entryDx=0;entryDy=0;" parent="1" source="15I_Uw0PIOJHW65UEEeW-1" target="15I_Uw0PIOJHW65UEEeW-15" edge="1">
          <mxGeometry width="50" height="50" relative="1" as="geometry">
            <mxPoint x="436" y="465" as="sourcePoint" />
            <mxPoint x="486" y="415" as="targetPoint" />
          </mxGeometry>
        </mxCell>
        <mxCell id="15I_Uw0PIOJHW65UEEeW-57" value="" style="endArrow=classic;dashed=1;html=1;rounded=0;entryX=1;entryY=0.5;entryDx=0;entryDy=0;exitX=0;exitY=0.5;exitDx=0;exitDy=0;" parent="1" source="15I_Uw0PIOJHW65UEEeW-9" target="15I_Uw0PIOJHW65UEEeW-23" edge="1">
          <mxGeometry relative="1" as="geometry">
            <mxPoint x="506" y="445" as="sourcePoint" />
            <mxPoint x="146" y="559.58" as="targetPoint" />
          </mxGeometry>
        </mxCell>
        <mxCell id="15I_Uw0PIOJHW65UEEeW-58" value="include" style="edgeLabel;resizable=0;html=1;;align=center;verticalAlign=middle;" parent="15I_Uw0PIOJHW65UEEeW-57" connectable="0" vertex="1">
          <mxGeometry relative="1" as="geometry" />
        </mxCell>
        <mxCell id="15I_Uw0PIOJHW65UEEeW-64" value="" style="endArrow=none;html=1;rounded=0;entryX=0;entryY=0.5;entryDx=0;entryDy=0;exitX=1;exitY=0.5;exitDx=0;exitDy=0;" parent="1" source="15I_Uw0PIOJHW65UEEeW-8" target="15I_Uw0PIOJHW65UEEeW-10" edge="1">
          <mxGeometry width="50" height="50" relative="1" as="geometry">
            <mxPoint x="406" y="465" as="sourcePoint" />
            <mxPoint x="456" y="415" as="targetPoint" />
          </mxGeometry>
        </mxCell>
        <mxCell id="15I_Uw0PIOJHW65UEEeW-67" value="" style="endArrow=classic;dashed=1;html=1;rounded=0;entryX=0;entryY=1;entryDx=0;entryDy=0;exitX=1;exitY=0.5;exitDx=0;exitDy=0;" parent="1" source="15I_Uw0PIOJHW65UEEeW-8" target="15I_Uw0PIOJHW65UEEeW-75" edge="1">
          <mxGeometry relative="1" as="geometry">
            <mxPoint x="346" y="235" as="sourcePoint" />
            <mxPoint x="504.5" y="365" as="targetPoint" />
          </mxGeometry>
        </mxCell>
        <mxCell id="15I_Uw0PIOJHW65UEEeW-68" value="extend&lt;div&gt;[มีการ์ดในเด็ค]&lt;/div&gt;" style="edgeLabel;resizable=0;html=1;;align=center;verticalAlign=middle;" parent="15I_Uw0PIOJHW65UEEeW-67" connectable="0" vertex="1">
          <mxGeometry relative="1" as="geometry" />
        </mxCell>
        <mxCell id="15I_Uw0PIOJHW65UEEeW-73" value="" style="endArrow=none;html=1;rounded=0;entryX=1;entryY=0.3333333333333333;entryDx=0;entryDy=0;entryPerimeter=0;exitX=0;exitY=0.5;exitDx=0;exitDy=0;" parent="1" source="15I_Uw0PIOJHW65UEEeW-72" target="15I_Uw0PIOJHW65UEEeW-1" edge="1">
          <mxGeometry width="50" height="50" relative="1" as="geometry">
            <mxPoint x="436" y="465" as="sourcePoint" />
            <mxPoint x="486" y="415" as="targetPoint" />
          </mxGeometry>
        </mxCell>
        <mxCell id="15I_Uw0PIOJHW65UEEeW-74" value="" style="endArrow=none;html=1;rounded=0;exitX=1;exitY=0.3333333333333333;exitDx=0;exitDy=0;exitPerimeter=0;entryX=0;entryY=0.5;entryDx=0;entryDy=0;" parent="1" source="15I_Uw0PIOJHW65UEEeW-1" target="15I_Uw0PIOJHW65UEEeW-23" edge="1">
          <mxGeometry width="50" height="50" relative="1" as="geometry">
            <mxPoint x="436" y="465" as="sourcePoint" />
            <mxPoint x="486" y="415" as="targetPoint" />
          </mxGeometry>
        </mxCell>
        <mxCell id="15I_Uw0PIOJHW65UEEeW-75" value="บันทึก ลบ แก้ไข แชร์" style="ellipse;whiteSpace=wrap;html=1;" parent="1" vertex="1">
          <mxGeometry x="366" y="255" width="75" height="50" as="geometry" />
        </mxCell>
        <mxCell id="15I_Uw0PIOJHW65UEEeW-86" value="" style="endArrow=none;html=1;rounded=0;entryX=1;entryY=0.3333333333333333;entryDx=0;entryDy=0;entryPerimeter=0;exitX=0;exitY=0.5;exitDx=0;exitDy=0;" parent="1" source="15I_Uw0PIOJHW65UEEeW-85" target="15I_Uw0PIOJHW65UEEeW-1" edge="1">
          <mxGeometry width="50" height="50" relative="1" as="geometry">
            <mxPoint x="436" y="485" as="sourcePoint" />
            <mxPoint x="486" y="435" as="targetPoint" />
          </mxGeometry>
        </mxCell>
        <mxCell id="15I_Uw0PIOJHW65UEEeW-94" value="" style="endArrow=classic;dashed=1;html=1;rounded=0;exitX=1;exitY=0.5;exitDx=0;exitDy=0;entryX=0;entryY=1;entryDx=0;entryDy=0;" parent="1" source="15I_Uw0PIOJHW65UEEeW-23" target="15I_Uw0PIOJHW65UEEeW-10" edge="1">
          <mxGeometry relative="1" as="geometry">
            <mxPoint x="436" y="405" as="sourcePoint" />
            <mxPoint x="156" y="275" as="targetPoint" />
          </mxGeometry>
        </mxCell>
        <mxCell id="15I_Uw0PIOJHW65UEEeW-95" value="include" style="edgeLabel;resizable=0;html=1;;align=center;verticalAlign=middle;" parent="15I_Uw0PIOJHW65UEEeW-94" connectable="0" vertex="1">
          <mxGeometry relative="1" as="geometry" />
        </mxCell>
        <mxCell id="15I_Uw0PIOJHW65UEEeW-98" value="ความสามารถของระบบ" style="text;html=1;align=center;verticalAlign=middle;resizable=0;points=[];autosize=1;strokeColor=none;fillColor=none;fontFamily=Helvetica;fontSize=12;fontColor=default;" parent="1" vertex="1">
          <mxGeometry x="336" y="219" width="130" height="30" as="geometry" />
        </mxCell>
        <mxCell id="15I_Uw0PIOJHW65UEEeW-104" value="" style="endArrow=none;html=1;rounded=0;fontFamily=Helvetica;fontSize=12;fontColor=default;entryX=1;entryY=0.5;entryDx=0;entryDy=0;exitX=0;exitY=0.3333333333333333;exitDx=0;exitDy=0;exitPerimeter=0;" parent="1" source="15I_Uw0PIOJHW65UEEeW-4" target="15I_Uw0PIOJHW65UEEeW-101" edge="1">
          <mxGeometry width="50" height="50" relative="1" as="geometry">
            <mxPoint x="486" y="515" as="sourcePoint" />
            <mxPoint x="536" y="465" as="targetPoint" />
          </mxGeometry>
        </mxCell>
        <mxCell id="15I_Uw0PIOJHW65UEEeW-105" value="" style="swimlane;startSize=0;rounded=0;strokeColor=default;align=center;verticalAlign=middle;fontFamily=Helvetica;fontSize=12;fontColor=default;fillColor=light-dark(#FFFFFF,var(--ge-dark-color, #121212));" parent="1" vertex="1">
          <mxGeometry x="197" y="215" width="409" height="530" as="geometry" />
        </mxCell>
        <mxCell id="15I_Uw0PIOJHW65UEEeW-17" value="อ่านแท็ก" style="ellipse;whiteSpace=wrap;html=1;" parent="15I_Uw0PIOJHW65UEEeW-105" vertex="1">
          <mxGeometry x="167" y="250" width="75" height="50" as="geometry" />
        </mxCell>
        <mxCell id="15I_Uw0PIOJHW65UEEeW-18" value="&lt;span style=&quot;background-color: transparent; color: light-dark(rgb(0, 0, 0), rgb(255, 255, 255));&quot;&gt;แสดงสถิติ&lt;/span&gt;&lt;div&gt;&lt;span style=&quot;background-color: transparent; color: light-dark(rgb(0, 0, 0), rgb(255, 255, 255));&quot;&gt;การเล่น&lt;/span&gt;&lt;/div&gt;" style="ellipse;whiteSpace=wrap;html=1;" parent="15I_Uw0PIOJHW65UEEeW-105" vertex="1">
          <mxGeometry x="167" y="400" width="75" height="50" as="geometry" />
        </mxCell>
        <mxCell id="15I_Uw0PIOJHW65UEEeW-16" value="แสดง&lt;br&gt;&lt;div&gt;ประวัติการเล่น&lt;/div&gt;" style="ellipse;whiteSpace=wrap;html=1;" parent="15I_Uw0PIOJHW65UEEeW-105" vertex="1">
          <mxGeometry x="323" y="325" width="75" height="50" as="geometry" />
        </mxCell>
        <mxCell id="15I_Uw0PIOJHW65UEEeW-9" value="เลือกเกม" style="ellipse;whiteSpace=wrap;html=1;" parent="15I_Uw0PIOJHW65UEEeW-105" vertex="1">
          <mxGeometry x="167" y="180" width="75" height="50" as="geometry" />
        </mxCell>
        <mxCell id="15I_Uw0PIOJHW65UEEeW-101" value="โหลดการ์ดจาก API" style="ellipse;whiteSpace=wrap;html=1;" parent="15I_Uw0PIOJHW65UEEeW-105" vertex="1">
          <mxGeometry x="323" y="110" width="75" height="50" as="geometry" />
        </mxCell>
        <mxCell id="15I_Uw0PIOJHW65UEEeW-102" value="" style="endArrow=classic;dashed=1;html=1;rounded=0;exitX=0;exitY=1;exitDx=0;exitDy=0;entryX=1;entryY=0.5;entryDx=0;entryDy=0;" parent="15I_Uw0PIOJHW65UEEeW-105" source="15I_Uw0PIOJHW65UEEeW-101" target="15I_Uw0PIOJHW65UEEeW-9" edge="1">
          <mxGeometry relative="1" as="geometry">
            <mxPoint x="477" y="220" as="sourcePoint" />
            <mxPoint x="477" y="160" as="targetPoint" />
          </mxGeometry>
        </mxCell>
        <mxCell id="15I_Uw0PIOJHW65UEEeW-103" value="extend&lt;div&gt;[ไม่มีการ์ดในระบบ]&lt;/div&gt;&lt;div&gt;[ต้องโหลดใหม่]&lt;/div&gt;" style="edgeLabel;resizable=0;html=1;;align=center;verticalAlign=middle;" parent="15I_Uw0PIOJHW65UEEeW-102" connectable="0" vertex="1">
          <mxGeometry relative="1" as="geometry">
            <mxPoint x="3" y="-2" as="offset" />
          </mxGeometry>
        </mxCell>
        <mxCell id="15I_Uw0PIOJHW65UEEeW-15" value="สร้างการ์ด" style="ellipse;whiteSpace=wrap;html=1;" parent="15I_Uw0PIOJHW65UEEeW-105" vertex="1">
          <mxGeometry x="17" y="400" width="75" height="50" as="geometry" />
        </mxCell>
        <mxCell id="15I_Uw0PIOJHW65UEEeW-85" value="ติดตามการ์ด" style="ellipse;whiteSpace=wrap;html=1;" parent="15I_Uw0PIOJHW65UEEeW-105" vertex="1">
          <mxGeometry x="17" y="325" width="75" height="50" as="geometry" />
        </mxCell>
        <mxCell id="15I_Uw0PIOJHW65UEEeW-89" value="" style="endArrow=classic;dashed=1;html=1;rounded=0;entryX=1;entryY=0.5;entryDx=0;entryDy=0;exitX=0;exitY=1;exitDx=0;exitDy=0;" parent="15I_Uw0PIOJHW65UEEeW-105" source="15I_Uw0PIOJHW65UEEeW-17" target="15I_Uw0PIOJHW65UEEeW-85" edge="1">
          <mxGeometry relative="1" as="geometry">
            <mxPoint x="87" y="455" as="sourcePoint" />
            <mxPoint x="167" y="455" as="targetPoint" />
          </mxGeometry>
        </mxCell>
        <mxCell id="15I_Uw0PIOJHW65UEEeW-90" value="include" style="edgeLabel;resizable=0;html=1;;align=center;verticalAlign=middle;" parent="15I_Uw0PIOJHW65UEEeW-89" connectable="0" vertex="1">
          <mxGeometry relative="1" as="geometry" />
        </mxCell>
        <mxCell id="15I_Uw0PIOJHW65UEEeW-93" value="" style="endArrow=none;html=1;rounded=0;entryX=1;entryY=0.5;entryDx=0;entryDy=0;exitX=0;exitY=0.5;exitDx=0;exitDy=0;" parent="15I_Uw0PIOJHW65UEEeW-105" source="15I_Uw0PIOJHW65UEEeW-18" target="15I_Uw0PIOJHW65UEEeW-85" edge="1">
          <mxGeometry width="50" height="50" relative="1" as="geometry">
            <mxPoint x="237" y="340" as="sourcePoint" />
            <mxPoint x="287" y="290" as="targetPoint" />
          </mxGeometry>
        </mxCell>
        <mxCell id="15I_Uw0PIOJHW65UEEeW-72" value="ตั้งค่าแอป" style="ellipse;whiteSpace=wrap;html=1;" parent="15I_Uw0PIOJHW65UEEeW-105" vertex="1">
          <mxGeometry x="17" y="470" width="75" height="50" as="geometry" />
        </mxCell>
        <mxCell id="15I_Uw0PIOJHW65UEEeW-110" value="ตรวจสอบแท็ก" style="ellipse;whiteSpace=wrap;html=1;" parent="15I_Uw0PIOJHW65UEEeW-105" vertex="1">
          <mxGeometry x="17" y="250" width="75" height="50" as="geometry" />
        </mxCell>
        <mxCell id="15I_Uw0PIOJHW65UEEeW-112" value="" style="endArrow=classic;dashed=1;html=1;rounded=0;entryX=1;entryY=0.5;entryDx=0;entryDy=0;exitX=0;exitY=0.5;exitDx=0;exitDy=0;" parent="15I_Uw0PIOJHW65UEEeW-105" source="15I_Uw0PIOJHW65UEEeW-17" target="15I_Uw0PIOJHW65UEEeW-110" edge="1">
          <mxGeometry relative="1" as="geometry">
            <mxPoint x="177" y="215" as="sourcePoint" />
            <mxPoint x="104" y="215" as="targetPoint" />
          </mxGeometry>
        </mxCell>
        <mxCell id="15I_Uw0PIOJHW65UEEeW-113" value="include" style="edgeLabel;resizable=0;html=1;;align=center;verticalAlign=middle;" parent="15I_Uw0PIOJHW65UEEeW-112" connectable="0" vertex="1">
          <mxGeometry relative="1" as="geometry" />
        </mxCell>
        <mxCell id="15I_Uw0PIOJHW65UEEeW-116" value="บันทึก&lt;div&gt;ประวัติการเล่น&lt;/div&gt;" style="ellipse;whiteSpace=wrap;html=1;" parent="15I_Uw0PIOJHW65UEEeW-105" vertex="1">
          <mxGeometry x="167" y="325" width="75" height="50" as="geometry" />
        </mxCell>
        <mxCell id="15I_Uw0PIOJHW65UEEeW-117" value="" style="endArrow=none;html=1;rounded=0;fontFamily=Helvetica;fontSize=12;fontColor=default;exitX=0;exitY=0.5;exitDx=0;exitDy=0;entryX=1;entryY=0.5;entryDx=0;entryDy=0;" parent="15I_Uw0PIOJHW65UEEeW-105" source="15I_Uw0PIOJHW65UEEeW-116" target="15I_Uw0PIOJHW65UEEeW-85" edge="1">
          <mxGeometry width="50" height="50" relative="1" as="geometry">
            <mxPoint x="289" y="300" as="sourcePoint" />
            <mxPoint x="339" y="250" as="targetPoint" />
          </mxGeometry>
        </mxCell>
        <mxCell id="15I_Uw0PIOJHW65UEEeW-134" style="edgeStyle=orthogonalEdgeStyle;rounded=0;orthogonalLoop=1;jettySize=auto;html=1;entryX=1;entryY=0.5;entryDx=0;entryDy=0;fontFamily=Helvetica;fontSize=12;fontColor=default;" parent="15I_Uw0PIOJHW65UEEeW-105" source="15I_Uw0PIOJHW65UEEeW-118" target="15I_Uw0PIOJHW65UEEeW-116" edge="1">
          <mxGeometry relative="1" as="geometry">
            <Array as="points">
              <mxPoint x="289" y="275" />
              <mxPoint x="289" y="350" />
            </Array>
          </mxGeometry>
        </mxCell>
        <mxCell id="15I_Uw0PIOJHW65UEEeW-118" value="sync&amp;nbsp;&lt;span style=&quot;background-color: transparent; color: light-dark(rgb(0, 0, 0), rgb(255, 255, 255));&quot;&gt;ข้อมูล&lt;/span&gt;&lt;div&gt;&lt;span style=&quot;background-color: transparent; color: light-dark(rgb(0, 0, 0), rgb(255, 255, 255));&quot;&gt;กับ firebase&lt;/span&gt;&lt;/div&gt;" style="ellipse;whiteSpace=wrap;html=1;" parent="15I_Uw0PIOJHW65UEEeW-105" vertex="1">
          <mxGeometry x="323" y="250" width="75" height="50" as="geometry" />
        </mxCell>
        <mxCell id="15I_Uw0PIOJHW65UEEeW-119" value="เขียนแท็ก" style="ellipse;whiteSpace=wrap;html=1;" parent="15I_Uw0PIOJHW65UEEeW-105" vertex="1">
          <mxGeometry x="323" y="40" width="75" height="50" as="geometry" />
        </mxCell>
        <mxCell id="15I_Uw0PIOJHW65UEEeW-19" value="สร้างห้อง&lt;div&gt;เล่นการ์ด&lt;/div&gt;" style="ellipse;whiteSpace=wrap;html=1;" parent="15I_Uw0PIOJHW65UEEeW-105" vertex="1">
          <mxGeometry x="167" y="470" width="75" height="50" as="geometry" />
        </mxCell>
        <mxCell id="15I_Uw0PIOJHW65UEEeW-88" value="" style="endArrow=none;html=1;rounded=0;entryX=1;entryY=0.5;entryDx=0;entryDy=0;exitX=0;exitY=0.5;exitDx=0;exitDy=0;" parent="15I_Uw0PIOJHW65UEEeW-105" source="15I_Uw0PIOJHW65UEEeW-19" target="15I_Uw0PIOJHW65UEEeW-85" edge="1">
          <mxGeometry width="50" height="50" relative="1" as="geometry">
            <mxPoint x="237" y="65" as="sourcePoint" />
            <mxPoint x="287" y="15" as="targetPoint" />
          </mxGeometry>
        </mxCell>
        <mxCell id="15I_Uw0PIOJHW65UEEeW-143" value="" style="endArrow=classic;dashed=1;html=1;rounded=0;exitX=0;exitY=1;exitDx=0;exitDy=0;entryX=1;entryY=0.5;entryDx=0;entryDy=0;" parent="15I_Uw0PIOJHW65UEEeW-105" source="15I_Uw0PIOJHW65UEEeW-16" target="15I_Uw0PIOJHW65UEEeW-18" edge="1">
          <mxGeometry relative="1" as="geometry">
            <mxPoint x="344" y="163" as="sourcePoint" />
            <mxPoint x="252" y="215" as="targetPoint" />
          </mxGeometry>
        </mxCell>
        <mxCell id="15I_Uw0PIOJHW65UEEeW-144" value="extend&lt;div&gt;[มีประวัติการเล่น]&lt;/div&gt;" style="edgeLabel;resizable=0;html=1;;align=center;verticalAlign=middle;" parent="15I_Uw0PIOJHW65UEEeW-143" connectable="0" vertex="1">
          <mxGeometry relative="1" as="geometry">
            <mxPoint x="3" as="offset" />
          </mxGeometry>
        </mxCell>
        <mxCell id="15I_Uw0PIOJHW65UEEeW-145" value="&lt;span style=&quot;font-size: 11px; background-color: rgb(255, 255, 255);&quot;&gt;include&lt;/span&gt;" style="text;html=1;align=center;verticalAlign=middle;resizable=0;points=[];autosize=1;strokeColor=none;fillColor=none;fontFamily=Helvetica;fontSize=12;fontColor=default;" parent="15I_Uw0PIOJHW65UEEeW-105" vertex="1">
          <mxGeometry x="260" y="259" width="60" height="30" as="geometry" />
        </mxCell>
        <mxCell id="15I_Uw0PIOJHW65UEEeW-111" value="" style="endArrow=none;html=1;rounded=0;fontFamily=Helvetica;fontSize=12;fontColor=default;exitX=1;exitY=0.3333333333333333;exitDx=0;exitDy=0;exitPerimeter=0;entryX=0;entryY=0.5;entryDx=0;entryDy=0;" parent="1" source="15I_Uw0PIOJHW65UEEeW-1" target="15I_Uw0PIOJHW65UEEeW-110" edge="1">
          <mxGeometry width="50" height="50" relative="1" as="geometry">
            <mxPoint x="486" y="515" as="sourcePoint" />
            <mxPoint x="536" y="465" as="targetPoint" />
          </mxGeometry>
        </mxCell>
        <mxCell id="15I_Uw0PIOJHW65UEEeW-122" value="" style="endArrow=none;html=1;rounded=0;fontFamily=Helvetica;fontSize=12;fontColor=default;exitX=1;exitY=0.5;exitDx=0;exitDy=0;entryX=0;entryY=0.3333333333333333;entryDx=0;entryDy=0;entryPerimeter=0;" parent="1" source="15I_Uw0PIOJHW65UEEeW-118" target="15I_Uw0PIOJHW65UEEeW-4" edge="1">
          <mxGeometry width="50" height="50" relative="1" as="geometry">
            <mxPoint x="486" y="515" as="sourcePoint" />
            <mxPoint x="536" y="465" as="targetPoint" />
          </mxGeometry>
        </mxCell>
        <mxCell id="15I_Uw0PIOJHW65UEEeW-141" value="" style="endArrow=classic;dashed=1;html=1;rounded=0;entryX=1;entryY=0.5;entryDx=0;entryDy=0;exitX=0;exitY=1;exitDx=0;exitDy=0;" parent="1" source="15I_Uw0PIOJHW65UEEeW-119" target="15I_Uw0PIOJHW65UEEeW-10" edge="1">
          <mxGeometry relative="1" as="geometry">
            <mxPoint x="541" y="593" as="sourcePoint" />
            <mxPoint x="449" y="650" as="targetPoint" />
          </mxGeometry>
        </mxCell>
        <mxCell id="15I_Uw0PIOJHW65UEEeW-142" value="include" style="edgeLabel;resizable=0;html=1;;align=center;verticalAlign=middle;" parent="15I_Uw0PIOJHW65UEEeW-141" connectable="0" vertex="1">
          <mxGeometry relative="1" as="geometry" />
        </mxCell>
      </root>
    </mxGraphModel>
  </diagram>
</mxfile>
